<?xml version="1.0" standalone="no"?>
<!DOCTYPE svg PUBLIC "-//W3C//DTD SVG 20010904//EN"
 "http://www.w3.org/TR/2001/REC-SVG-20010904/DTD/svg10.dtd">
<svg version="1.0" xmlns="http://www.w3.org/2000/svg"
 width="4096.000000pt" height="2047.000000pt" viewBox="0 0 4096.000000 2047.000000"
 preserveAspectRatio="xMidYMid meet">
<metadata>
Created by potrace 1.15, written by Peter Selinger 2001-2017
</metadata>
<g transform="translate(0.000000,2047.000000) scale(0.100000,-0.100000)"
fill="#000000" stroke="none">
<path d="M28284 18009 c-62 -18 -54 -6 -567 -935 -152 -275 -300 -545 -328
-600 -28 -54 -57 -106 -64 -114 -7 -8 -56 -94 -109 -190 -77 -139 -96 -183
-96 -215 0 -59 29 -106 80 -132 44 -23 46 -23 517 -23 l473 0 0 -98 0 -97
-327 -38 c-436 -50 -959 -112 -1111 -131 -138 -17 -175 -33 -203 -86 -37 -69
-19 -150 81 -355 182 -375 434 -636 785 -813 196 -99 392 -148 633 -159 l142
-6 0 -1104 0 -1104 -54 -50 c-72 -66 -100 -130 -101 -229 0 -96 34 -171 106
-233 l49 -42 0 -76 0 -77 -37 -7 c-21 -4 -47 -9 -59 -10 -34 -5 -101 -43 -123
-71 -32 -40 -28 -90 9 -124 27 -26 106 -57 183 -74 l27 -6 0 -340 c0 -187 -2
-340 -5 -340 -18 0 -76 39 -122 82 l-53 50 39 28 c54 40 82 90 88 160 14 148
-114 256 -259 220 -96 -24 -158 -106 -158 -208 0 -200 148 -432 331 -516 105
-49 182 -66 290 -66 116 0 192 18 295 67 177 85 311 284 331 490 8 81 -14 140
-68 186 -85 74 -205 75 -286 4 -46 -41 -63 -82 -63 -155 0 -97 29 -155 94
-189 l28 -15 -38 -39 c-36 -37 -122 -99 -137 -99 -4 0 -7 152 -7 339 l0 338
63 17 c133 36 203 100 181 164 -15 42 -90 86 -172 102 l-72 13 0 79 c0 43 4
78 8 78 24 0 95 78 123 135 56 114 41 253 -37 344 -20 23 -49 48 -65 57 l-29
15 0 1117 0 1117 83 19 c534 118 918 528 1066 1136 35 145 51 255 54 372 2 73
-1 87 -21 116 -31 43 -74 64 -131 64 -40 -1 -952 -104 -1023 -117 l-28 -4 0
229 0 230 408 0 c403 0 408 0 452 23 27 13 51 36 62 57 35 65 24 97 -125 352
-74 128 -145 251 -157 273 -40 74 -324 560 -330 565 -6 5 -183 309 -290 498
-67 119 -95 146 -160 156 -19 2 -49 1 -66 -5z m389 -1024 c276 -469 337 -575
343 -589 6 -14 -22 -16 -265 -16 l-271 0 0 468 0 467 47 -80 c25 -44 91 -156
146 -250z m-493 -290 l0 -595 -330 0 c-181 0 -330 2 -330 5 0 3 9 18 19 33 19
27 365 652 428 772 49 95 207 380 210 380 2 0 3 -268 3 -595z m1195 -1292
c-35 -204 -122 -450 -204 -572 -10 -14 -32 -48 -51 -76 -42 -64 -129 -154
-202 -211 -77 -60 -234 -137 -338 -167 l-85 -25 -3 491 c-1 269 -1 491 1 493
4 4 814 102 855 103 33 1 33 1 27 -36z m-1185 -595 l0 -491 -127 6 c-376 18
-716 182 -946 455 -100 119 -255 372 -229 372 11 0 1076 126 1172 139 36 5 80
9 98 10 l32 1 0 -492z"/>
<path d="M16596 13744 c-153 -28 -322 -110 -459 -221 -78 -65 -110 -102 -407
-478 -231 -292 -357 -431 -450 -494 -102 -70 -227 -125 -370 -162 -30 -8 -244
-14 -635 -19 -555 -7 -595 -9 -668 -29 -189 -50 -316 -160 -416 -358 -71 -143
-66 61 -66 -2508 0 -1820 3 -2328 13 -2397 53 -361 183 -530 471 -611 l76 -21
3790 -6 c2085 -3 3966 -3 4180 1 431 7 441 8 584 76 146 69 269 228 315 409
36 139 37 225 33 2554 -3 2111 -4 2300 -20 2362 -80 320 -282 491 -612 519
-60 5 -318 9 -571 9 -373 0 -478 3 -545 15 -264 49 -436 155 -644 395 -16 19
-126 157 -243 305 -118 149 -242 302 -278 342 -125 140 -309 253 -494 304
l-85 24 -1210 2 c-1018 1 -1223 -1 -1289 -13z m2331 -528 c110 -36 209 -108
294 -213 81 -102 179 -277 179 -322 0 -44 -35 -76 -99 -90 -37 -8 -462 -11
-1467 -11 -1586 0 -1465 -6 -1505 72 -25 50 -21 64 63 208 124 212 300 342
509 378 24 4 472 7 994 6 l950 -1 82 -27z m-4494 -1594 c77 -38 148 -111 185
-190 23 -48 27 -71 27 -142 0 -74 -4 -93 -31 -150 -38 -80 -106 -149 -182
-187 -51 -25 -68 -28 -157 -28 -87 0 -107 3 -156 26 -127 60 -201 171 -208
312 -4 96 10 150 59 226 101 155 300 213 463 133z m7391 -8 l26 -27 0 -286
c-1 -300 -1 -305 -47 -329 -16 -9 -169 -12 -558 -12 l-537 0 -29 29 -29 29 0
280 0 280 31 31 31 31 542 0 543 0 27 -26z m-3679 -120 c392 -58 758 -222
1064 -479 193 -163 373 -382 500 -610 82 -149 202 -469 186 -495 -3 -5 -1 -11
5 -15 6 -4 8 -11 5 -16 -4 -5 -3 -14 1 -21 4 -7 8 -21 9 -32 1 -12 10 -77 20
-146 21 -152 16 -476 -9 -605 -9 -44 -18 -99 -21 -122 -16 -124 -115 -383
-212 -557 -116 -206 -358 -490 -539 -632 -98 -76 -290 -194 -399 -244 -297
-138 -577 -200 -895 -200 -252 0 -448 32 -680 112 -152 53 -237 93 -393 185
-160 96 -300 208 -437 349 -95 98 -131 143 -262 324 -65 91 -207 385 -222 462
-2 13 -18 75 -35 139 -48 186 -65 321 -65 524 0 202 17 338 65 523 17 64 32
127 35 140 5 25 49 137 88 223 32 73 161 282 234 379 70 94 254 283 349 360
104 84 251 179 383 248 369 193 810 267 1225 206z"/>
<path d="M17691 10880 c-606 -77 -1113 -509 -1255 -1071 -74 -293 -74 -504 -1
-805 31 -123 77 -236 141 -344 211 -355 537 -594 951 -697 101 -25 122 -27
328 -27 198 0 230 2 315 23 496 123 858 423 1052 872 41 96 87 247 92 301 2
19 5 39 8 44 9 16 6 454 -3 460 -5 3 -7 9 -4 14 8 13 -27 158 -60 250 -15 41
-54 127 -86 190 -204 395 -578 675 -1029 770 -111 23 -340 33 -449 20z"/>
<path d="M23427 11613 c-4 -3 -7 -150 -7 -325 l0 -318 1400 0 c913 0 1400 -3
1400 -10 0 -5 -248 -283 -552 -617 -304 -335 -615 -678 -692 -763 -77 -85
-188 -204 -245 -265 -58 -60 -157 -171 -220 -245 -64 -74 -141 -160 -172 -190
-30 -30 -97 -102 -148 -160 -52 -58 -131 -145 -176 -195 -147 -161 -278 -308
-385 -430 -57 -66 -107 -122 -110 -125 -3 -3 -22 -24 -42 -48 l-38 -42 0 -300
0 -300 1835 0 1835 0 0 315 0 315 -1355 2 -1355 3 196 225 c108 124 267 306
354 405 174 199 372 426 1438 1648 l722 827 0 300 0 300 -1838 0 c-1011 0
-1842 -3 -1845 -7z"/>
<path d="M9420 9410 l0 -2110 1430 0 1430 0 0 300 0 300 -1087 2 -1088 3 -3
1808 -2 1807 -340 0 -340 0 0 -2110z"/>
<path d="M30250 10754 c-97 -9 -246 -37 -319 -61 -425 -138 -679 -445 -698
-843 -20 -422 202 -710 677 -880 127 -45 425 -136 480 -145 65 -11 184 -55
286 -105 83 -41 113 -63 172 -124 96 -99 125 -161 130 -281 5 -118 -9 -190
-58 -291 -52 -108 -156 -216 -250 -261 -155 -74 -286 -99 -484 -90 -289 13
-452 86 -827 372 l-46 34 -43 -62 c-122 -176 -190 -278 -190 -286 0 -16 113
-111 205 -173 259 -172 541 -261 870 -275 385 -16 707 81 954 287 158 133 303
372 328 540 9 58 12 434 4 445 -4 6 -8 21 -9 35 -3 53 -90 206 -161 282 -159
170 -344 261 -861 423 -151 47 -303 97 -336 111 -158 65 -292 175 -341 280
-38 82 -40 216 -4 316 60 166 200 281 416 339 66 18 107 22 240 22 172 0 237
-12 382 -69 64 -25 243 -129 342 -198 24 -17 46 -26 48 -21 3 9 33 54 178 259
l48 69 -34 28 c-106 89 -340 215 -484 259 -150 46 -457 78 -615 64z"/>
<path d="M9420 3885 l0 -1395 825 0 825 0 0 160 0 160 -630 0 -630 0 0 1235 0
1235 -195 0 -195 0 0 -1395z"/>
<path d="M12670 3885 l0 -1395 900 0 900 0 0 155 0 155 -700 0 -700 0 0 470 0
470 565 0 565 0 0 155 0 155 -565 0 -565 0 0 450 0 450 700 0 700 0 0 165 0
165 -900 0 -900 0 0 -1395z"/>
<path d="M16190 3885 l0 -1395 200 0 200 0 0 1395 0 1395 -200 0 -200 0 0
-1395z"/>
<path d="M19108 5269 c-103 -15 -182 -39 -273 -84 -310 -153 -477 -429 -450
-740 23 -255 146 -432 385 -554 129 -66 426 -170 535 -187 55 -8 150 -45 245
-95 103 -53 192 -145 215 -221 21 -72 19 -192 -4 -267 -53 -171 -203 -295
-405 -337 -99 -20 -299 -15 -396 11 -80 21 -216 84 -267 122 -161 123 -245
185 -246 182 -1 -2 -44 -66 -95 -142 -52 -76 -91 -144 -89 -151 8 -20 157
-136 237 -184 70 -42 86 -49 225 -98 231 -81 555 -95 782 -33 319 88 517 268
613 559 42 125 53 312 25 434 -30 137 -105 256 -214 340 -120 93 -218 135
-586 257 -284 94 -404 150 -482 227 -77 76 -98 125 -98 232 0 72 4 94 28 144
72 155 208 241 421 267 201 25 405 -36 624 -183 41 -28 77 -46 82 -41 4 4 46
65 94 135 l86 126 -47 40 c-150 124 -338 207 -543 238 -102 15 -309 17 -402 3z"/>
<path d="M21840 4408 c0 -510 5 -913 10 -968 33 -306 179 -577 411 -755 112
-87 288 -166 450 -201 121 -27 457 -27 579 0 93 20 241 71 311 106 227 116
408 334 492 595 57 177 57 167 57 1171 l0 924 -195 0 -195 0 0 -877 c0 -931
-3 -992 -48 -1123 -95 -273 -325 -452 -616 -478 -367 -34 -666 132 -790 438
-64 157 -60 87 -63 1108 l-4 932 -199 0 -200 0 0 -872z"/>
<path d="M29747 5273 c-4 -3 -7 -631 -7 -1395 l0 -1388 900 0 900 0 0 155 0
155 -695 0 -695 0 0 470 0 470 563 2 562 3 3 153 3 152 -566 0 -565 0 0 450 0
450 695 0 695 0 0 165 0 165 -893 0 c-492 0 -897 -3 -900 -7z"/>
<path d="M26040 3886 l0 -1386 200 0 200 0 0 575 0 575 173 0 c94 0 189 -5
209 -10 41 -12 111 -86 874 -927 117 -129 184 -195 205 -202 40 -14 439 -15
439 -1 0 5 -6 13 -14 17 -7 4 -134 141 -281 303 -357 392 -587 642 -712 771
-92 94 -123 132 -93 114 13 -8 175 47 252 86 185 93 306 214 383 382 45 99 65
196 65 320 0 337 -185 576 -535 691 -188 62 -251 68 -832 73 l-533 5 0 -1386z
m968 1064 c375 -41 550 -213 529 -523 -13 -205 -129 -359 -329 -437 -126 -49
-219 -60 -509 -60 l-259 0 0 515 0 515 235 0 c130 0 279 -5 333 -10z"/>
</g>
</svg>
